<svg id="Layer_1" data-name="Layer 1" xmlns="http://www.w3.org/2000/svg" viewBox="0 0 250 250"><defs><style>.cls-1{fill:#009e4f;}</style></defs><path class="cls-1" d="M75.21,131.57q10,10.2,10,25.36a35.93,35.93,0,0,1-4.45,17.9A32.61,32.61,0,0,1,68,187.44a35.2,35.2,0,0,1-17.5,4.65,33.24,33.24,0,0,1-17.14-4.69,34.39,34.39,0,0,1-12.72-13.13,35.38,35.38,0,0,1,0-35.31,33.89,33.89,0,0,1,30-17.58A33.07,33.07,0,0,1,75.21,131.57Zm9.27-18.79v16.07a44.37,44.37,0,0,0-15.31-13.74,41.18,41.18,0,0,0-19.49-4.58A43.21,43.21,0,0,0,17.78,124a44.28,44.28,0,0,0-13.26,32.3q0,19.29,13.14,32.75a42.71,42.71,0,0,0,31.7,13.46,43,43,0,0,0,19.25-4.34,48.34,48.34,0,0,0,15.87-12.94v15H95.57V112.78Z"/><path class="cls-1" d="M120.86,127.36q-10-10.2-10-25.39a36,36,0,0,1,4.45-17.92,32.81,32.81,0,0,1,12.75-12.66,35,35,0,0,1,17.51-4.7,33,33,0,0,1,17,4.7,34.53,34.53,0,0,1,12.71,13.14,35.69,35.69,0,0,1,0,35.44,33.87,33.87,0,0,1-29.95,17.6A33,33,0,0,1,120.86,127.36Zm-9.18,18.81V130.1A45.38,45.38,0,0,0,127,143.84a40.81,40.81,0,0,0,19.34,4.58A43.15,43.15,0,0,0,178.23,135a44.44,44.44,0,0,0,13.25-32.39A45.05,45.05,0,0,0,178.35,70a44.31,44.31,0,0,0-50.85-9.16,47.4,47.4,0,0,0-15.82,13V25H100.43V146.17Z"/><path class="cls-1" d="M235.92,142.65a46.68,46.68,0,0,0-13.7-6.92,53.63,53.63,0,0,0-16.76-2.65,51.23,51.23,0,0,0-25,6.11,45,45,0,0,0-17.56,17,45.78,45.78,0,0,0-6.39,23.58,42.88,42.88,0,0,0,13.66,32.07Q183.84,225,204.58,225a53.72,53.72,0,0,0,24.06-5.2,42.12,42.12,0,0,0,16.84-14.64l-8.92-5.87q-12.19,15.34-31.47,15.35a38.7,38.7,0,0,1-19-4.66,34,34,0,0,1-13.32-13.08,35.42,35.42,0,0,1-4.86-18,33.54,33.54,0,0,1,10.56-25Q189,143.69,205,143.69q20,0,31.55,15.35l8.92-5.55A37.66,37.66,0,0,0,235.92,142.65Z"/></svg>