<svg id="Layer_1" data-name="Layer 1" xmlns="http://www.w3.org/2000/svg" viewBox="0 0 250 250"><defs><style>.cls-1{fill:#009e4f;}</style></defs><path class="cls-1" d="M35.18,149.2,46,117.11c2.14-6.75,4-13.5,5.59-20.08H52c1.65,6.42,3.3,13,5.76,20.24L68.59,149.2Zm36.37,11.19L83.4,195.28H98.71L60.85,84.36H43.57L5.88,195.28H20.69l11.52-34.89Z"/><path class="cls-1" d="M103.51,89.11h11.84C131,89.11,144,95.36,144,110.5c0,16.13-13.66,21.56-28.47,21.56a75.6,75.6,0,0,1-12-.66Zm0-46.58a60.79,60.79,0,0,1,12.67-1c14.48,0,24.36,5.1,24.36,18.11,0,10.69-8.89,18.59-24,18.59h-13ZM89.19,141.94a169,169,0,0,0,22.21,1.31c18.11,0,30.62-3.29,38.35-10.37a29.87,29.87,0,0,0,9.38-22.21c0-16.46-12.34-25.18-22.87-27.82v-.33C147.94,78.24,155,68.86,155,58.16c0-8.72-3.46-15.3-9.22-19.58-6.91-5.6-16.13-8.07-30.45-8.07a138.27,138.27,0,0,0-26.16,2.31Z"/><path class="cls-1" d="M241,202.86c-5.76,2.8-14.65,4.61-23.37,4.61-27,0-42.62-17.44-42.62-44.6,0-29.13,17.28-45.75,43.28-45.75a52.18,52.18,0,0,1,22.38,4.6L244.12,110c-3.79-2-12.51-4.94-26.33-4.94-34.4,0-57.94,23.54-57.94,58.26,0,36.38,23.54,56.13,54.81,56.13,13.5,0,24-2.64,29.3-5.27Z"/></svg>