<?xml version="1.0" encoding="utf-8"?>
<!-- Generator: Adobe Illustrator 26.0.1, SVG Export Plug-In . SVG Version: 6.00 Build 0)  -->
<svg version="1.1" id="Layer_1" xmlns="http://www.w3.org/2000/svg" xmlns:xlink="http://www.w3.org/1999/xlink" x="0px" y="0px"
	 viewBox="0 0 250 250" style="enable-background:new 0 0 250 250;" xml:space="preserve">
<style type="text/css">
	.st0{fill:#009E4E;}
</style>
<g>
	<g>
		<path class="st0" d="M44.5,102.6c-1.3-1.6-2.7-1.4-4.2-1c-4.8,1.4-9.4,0.3-13.6-2.2c-4.3-2.6-6.4-6.8-5.2-10.3
			c1.2-3.6,6.2-6,10.9-5.3c6.5,1,11.9,3.4,13.9,10.4c0.3,1,0.9,1.8,2,1.8c1,0,1.2-1.1,1.6-1.9c2.4-5.5,4.8-11,7.3-16.4
			c0.7-1.6,1.5-3.2,2.2-4.7c2.8-6.1,7.3-8.9,14.2-8.8c19.8,0.3,39.6,0.1,59.4,0.1c3.8,0,3.8,0,4,3.8c0.2,5.3,0.2,5.3-5.4,5.3
			c-18.7,0-37.3,0.1-55.9-0.1c-4.3,0-7,1.4-8.7,5.5c-2.6,6.6-5.6,13.2-8.5,19.7c-1.1,2.5-0.3,2.9,2.1,2.9c30-0.1,60.1,0,90.2,0
			c4.3,0,4.3,0,5.4,4.2c2.3,8.8,4.7,17.5,7.1,26.3c1,3.8,0.9,3.9-3,3.9c-27.8,0-55.7,0-83.5,0c-1.3,0-2.5,0-3.8,0.1
			c-2.6,0.2-4.2,1.6-4.3,4.2c-0.1,4-0.1,7.9,0,11.9c0.1,2.7,1.7,4.2,4.4,4.5c1,0.1,1.9,0.1,2.9,0.1c30,0,59.9,0,89.9,0
			c1.1,0,2.3-0.3,3.4,0.4c0.1,1-0.7,1.3-1.3,1.8c-1.8,1.6-3.9,3.3-4.6,5.5c-1.8,5.4-5.7,5.6-10.4,5.5c-24.7-0.2-49.5-0.1-74.2-0.1
			c-3.8,0-3.8,0-3.8,3.9c0,1.3,0,2.5-0.1,3.8c-0.4,4.9-2.9,7.9-7.8,8.2c-10.3,0.6-20.7,0.5-31,0c-4.8-0.2-7.8-3.5-7.6-8.2
			c0.4-13-1.9-26-1.2-39c0.2-4.2,0.2-8.5,0-12.8c-0.4-7.1,2.6-12.5,8-16.8C37.9,106.4,41,104.5,44.5,102.6z M45.4,121.4
			c-8,0-11.1,5.3-7.7,11.1c3.4,5.7,8.7,8.5,15.2,8.3c5.6-0.2,8.5-4.9,6.1-10C56.1,124.6,50.8,121.9,45.4,121.4z"/>
		<path class="st0" d="M170.1,181.9c0.2-10.2,3.2-17.2,9.1-22.9c1.8-1.7,2.2-3.2,1.5-5.6c-5.1-18.7-10.1-37.5-15.1-56.2
			c-0.5-1.8-1.2-2.7-3.1-3.3c-21.4-5.8-24-28.8-18-41.8c1.2-2.7,3.2-4.8,6.1-5.9c2-0.8,3.1-0.3,3.3,2c0.5,5.4,0.9,10.8,2,16.1
			c1.5,7.2,7.7,11.2,14.9,9.4c6.7-1.7,10.3-8.3,8.2-15.2c-1.6-5.2-4.1-10-6.3-14.9c-1.2-2.6-0.9-3.2,1.9-3.7c2.6-0.5,5,0.3,7.1,1.8
			c12.5,8.3,22.2,29.3,6.3,45.5c-1.3,1.4-1.5,2.6-1.1,4.4c5,18.6,10,37.1,14.9,55.7c0.7,2.6,1.8,3.9,4.6,4.6
			c12.7,3.2,20.8,13.5,22,26.7c0.5,5.9,0.1,11.6-2.1,17.1c-1.3,3.4-3.4,6.3-7.1,7.6c-2.6,0.9-3.2,0.5-3.5-2.2
			c-0.7-5.8-1-11.7-2.2-17.5c-1.6-7.3-8.7-11.9-15.7-10c-7.8,2.1-11.8,9.3-9.3,16.8c1.8,5.4,4.4,10.5,6.7,15.7
			c1.4,3,0.9,3.9-2.5,4.2c-3.1,0.2-5.8-0.8-8.1-2.6C175.8,200.7,170.7,191.5,170.1,181.9z"/>
	</g>
</g>
</svg>
