<?xml version="1.0" encoding="utf-8"?>
<!-- Generator: Adobe Illustrator 26.0.1, SVG Export Plug-In . SVG Version: 6.00 Build 0)  -->
<svg version="1.1" id="Layer_1" xmlns="http://www.w3.org/2000/svg" xmlns:xlink="http://www.w3.org/1999/xlink" x="0px" y="0px"
	 viewBox="0 0 250 250" style="enable-background:new 0 0 250 250;" xml:space="preserve">
<style type="text/css">
	.st0{fill:#009E4E;}
</style>
<g>
	<path class="st0" d="M189.1,17c6.3,3.8,12.5,7.7,18.8,11.5c1,0.6,1.2,1.1,0.6,2.1c-1.5,2.6-2.8,5.2-4.4,7.7c-0.8,1.3-1.1,2.5-1.1,4
		c0,14.2,0,28.5,0,42.7c0,3.6,0,7.1,0,10.7c0,1.2,0.4,1.8,1.7,1.7c1-0.1,2,0,3,0c1.3,0,1.8,0.4,1.6,1.8c-1.3,9.1-2.6,18.2-3.9,27.3
		c-0.2,1.1,0,2.5-1.8,2.5c-0.6,0-0.6,0.8-0.6,1.3c0,1.7,0.1,3.3-0.1,5c-0.2,1.9,0.4,3,2.1,4c7.9,4.6,7.8,15.9,2.9,20.9
		c-0.8,0.8-0.8,1.2,0.1,1.9c5.1,4.4,10.2,8.8,15.4,13.2c2.1,1.9,4.3,3.7,6.5,5.6c0.3,0.2,0.6,0.4,0.5,0.9c-0.1,0.3-0.4,0.4-0.7,0.4
		c-3.1,0.1-5.9,0.2-8.6-2.3c-5.6-5.3-11.6-10.1-17.5-15.1c-0.8-0.7-1.5-0.9-2.4-0.6c-3.2,1.1-6.3,1.1-9.4-0.3
		c-0.8-0.4-1.4-0.2-2.1,0.4c-6.3,5.1-12.7,10.2-18.9,15.4c-2.1,1.8-4.2,3-7,2.5c-0.9-0.1-2.4,0.5-2.7-0.5c-0.2-0.8,1.2-1.4,1.9-2.1
		c7.5-6.1,15-12.2,22.6-18.2c0.9-0.7,1.1-1.3,0.5-2.4c-1.5-2.4-2.2-5-2-7.8c0.2-2.3,1.8-4,4.1-4.2c2.2-0.2,4.3,1.1,4.9,3.3
		c0.2,0.7,0.3,1.5,0.4,2.3c0.1,1.2,0.5,1.9,1.8,1c1.1-0.7,2.1-0.5,3.2,0.2c1.7,1.2,2.9,0.7,3.4-1.4c0.7-3.1-0.6-5.4-3.8-6.4
		c-3.4-1.1-4.3-2.4-4.4-6c0-3.1-0.1-6.2,0-9.3c0-1.4-0.4-2-1.9-2c-3.1,0.1-3.1,0-3.7-3.1c-1.6-7.9-3.1-15.8-4.7-23.7
		c-0.9-4.6-0.9-4.7,3.8-4.6c1.8,0,2.2-0.6,2.2-2.3c-0.1-9,0-17.9,0-26.9c0-0.5,0-1,0-1.5c-2.6,4.3-4.9,8.6-7.1,12.9
		c-6.2,11.9-12.4,23.9-18.6,35.9c-8.6,16.5-17.2,33.1-25.8,49.6c-1,2-1.7,3.9-1.4,6.1c0.2,1.7-0.5,2.3-2.2,2.3
		c-4.6-0.1-9.3,0-13.9-0.1c-1.2,0-1.8,0.4-1.7,1.6c0.1,1.5,0,3.1,0,4.6c0,2.6,0,2.6-2.7,2.6c-20.6,0-41.2,0-61.8,0
		c-0.4,0-0.7,0-1.1,0c-1.2,0.1-1.7-0.6-1.7-1.7c0-1.7-0.1-3.3,0-5c0.1-1.7-0.5-2.2-2.2-2.2c-7.3,0.1-14.6,0-21.9,0
		c-2.3,0-2.4,0-2.4-2.4c0-26.7,0-53.4,0-80.1c0-2.3,0.1-2.4,2.4-2.4c20.8,0,41.5,0,62.3,0c2.3,0,2.4,0.1,2.4,2.4c0,12.5,0,25,0,37.6
		c0,2-0.4,3.9-1.1,5.7c-1.4,3.5-2.6,7.1-4,10.7c-0.4,1.1-0.1,1.4,1,1.4c2.1,0,4.3,0,6.4,0c0.9,0,1.5-0.4,2.1-1.1
		c2.2-3.1,4.5-6.2,6.8-9.4c7.7-10.8,15.4-21.5,23.1-32.3c7.4-10.3,14.8-20.6,22.2-30.9c10.3-14.3,20.5-28.6,30.8-43
		c3-4.2,6.2-8.2,8.9-12.6C188.4,17,188.8,17,189.1,17z M71.8,133c1.5,0,2-0.5,2-1.9c-0.1-7.5-0.1-14.9,0-22.4c0-1.4-0.4-1.9-1.8-1.9
		c-9.1,0.1-18.1,0-27.2,0c-1.3,0-1.8,0.4-1.8,1.7c0,7.5,0,15.1,0,22.6c0,1.5,0.6,1.9,2,1.9c4.5-0.1,9,0,13.5,0
		C62.9,133,67.3,133,71.8,133z M129.8,152.7c-3.5-7.6-7-15.1-10.6-22.7c-0.2-0.5-0.2-1.1-0.9-1.2c-0.7-0.1-0.8,0.6-1.1,1
		c-2.7,3.6-5.3,7.3-8,10.9c-0.8,1.1-1,1.8,0.4,2.6c6.8,3.8,13.5,7.8,20.3,11.7c0.1,0.1,0.3,0,0.5,0
		C130.6,154,130.1,153.3,129.8,152.7z M194.6,56.3c-0.4,0.7-0.4,1.5-0.4,2.2c0,12.3,0,24.7,0,37c0,1.5,0.5,1.9,2,1.9
		c1.5,0,2-0.5,2-2c0-14.6,0-29.2,0-43.8c0-0.3-0.1-0.7-0.1-1c-0.1,0-0.2,0-0.4-0.1C196.6,52.5,195.6,54.4,194.6,56.3z M129.1,125.4
		c2.6,6.4,5.3,12.7,7.9,19c0.1,0.3,0.2,0.8,0.6,0.8c0.4,0,0.6-0.4,0.7-0.7c2-3.5,4-7,6-10.5c0.4-0.6,0.7-1.3-0.1-1.9
		c-5.5-3.9-11-7.8-16.5-11.8c-0.1-0.1-0.3-0.1-0.6-0.1C127.4,122.2,128.4,123.7,129.1,125.4z M144.2,114.2
		c-1.5-4.1-3.1-8.1-4.7-12.1c-0.6-1.5-1-1.4-1.9-0.2c-2,2.9-4.2,5.8-6.3,8.6c-0.6,0.8-0.9,1.5,0.2,2.2c4.9,3.2,9.9,6.4,14.8,9.6
		c0.2,0.1,0.4,0.2,0.9,0.3C146.6,119.5,145.2,116.9,144.2,114.2z M158.2,109.7c0.8-1.5,1.5-3,2.2-4.4c0.3-0.6,0.6-1.2-0.2-1.7
		c-4.6-3.1-9.2-6.2-13.8-9.4c-0.1,0.1-0.3,0.2-0.4,0.3c2.7,7.4,5.5,14.8,8.4,22.6C155.8,114.3,157,112,158.2,109.7z M163.2,87.2
		c-1-4.8-2-9.6-3-14.4c-0.1-0.4,0-1.1-0.6-1.2c-0.5-0.1-0.8,0.5-1,0.9c-2.4,3.5-4.8,7-7.2,10.6c-0.3,0.5-0.8,1-0.1,1.5
		c4.1,2.7,8.3,5.3,12.7,8.2C164.1,90.6,163.5,88.9,163.2,87.2z M173.9,49.3c-0.2,0.3-0.3,0.6-0.5,0.9c-2.5,4.1-2.3,3.1,1.4,5.7
		c3,2,6.1,4,9.7,6.2c-1.7-7.6-3.2-14.7-4.8-21.8c-0.1,0-0.3-0.1-0.4-0.1C177.5,43.2,175.7,46.3,173.9,49.3z M177.5,72.1
		c0.3-0.5,0.3-1-0.3-1.4c-3.7-2.3-7.2-4.9-11.1-7c0,0-0.1,0-0.4,0.1c1.5,6.9,3,13.8,4.5,20.7c0.1,0,0.3,0,0.4,0.1
		C173,80.4,175.3,76.3,177.5,72.1z M192.7,46.8c1.4-2.5,2.7-5.1,4.1-7.7c0.4-0.7,0.6-1.3-0.2-1.8c-3.4-2.2-6.7-4.4-10.5-6.8
		c1.4,7.1,2.6,13.8,4,20.9C191.4,49.8,191.9,48.2,192.7,46.8z"/>
	<path class="st0" d="M27.8,239.9c-2.2-0.9-4.4-1.6-6.3-3.2c-3.6-3.1-5-7.4-5.4-11.9c-0.5-7-0.6-14,0-21c0.4-5,2.8-9.1,7.6-11.4
		c3.1-1.5,6.4-1.7,9.7-1.7c31.4,0,62.9,0,94.3,0c2.8,0,5.7,0.1,8.5,0.7c7.9,1.8,13.1,6.4,13.3,15c0.1,6.3,0.1,12.6,0,18.9
		c-0.1,5.6-2.1,10-7.5,12.5c-2.3,1-4.7,1.6-7.1,2.1C99.3,239.9,63.6,239.9,27.8,239.9z M36.7,209c-2.5,0-2.5,0-2.5,2.4
		c0,2.9,0,5.8,0,8.7c0,1.4,0.5,1.9,1.9,1.9c31.2,0,62.4,0,93.6,0c1.5,0,1.8-0.6,1.8-1.9c-0.1-3-0.1-5.9,0-8.9
		c0.1-1.7-0.5-2.2-2.2-2.2c-15.5,0.1-30.9,0-46.4,0C67.4,209,52.1,209,36.7,209z"/>
	<path class="st0" d="M198.5,217.9c11.1,0,22.2,0,33.3,0c2.3,0,2.3,0,2.3-2.4c0-1.7,0.1-3.3,0.1-5c0-1.4-0.5-2.1-2-2
		c-1.8,0.1-3.6,0-5.3,0c-1.2,0-1.7-0.3-1.7-1.6c0.1-3.3,0-6.5,0-9.8c0-1.1,0.4-1.6,1.6-1.6c2,0,3.9,0,5.9,0c1,0,1.6-0.2,1.5-1.4
		c-0.1-2.1,0-4.1,0-6.2c0-1-0.4-1.5-1.5-1.5c-0.4,0-0.8,0-1.2,0c-22,0-44,0-66,0c-2.9,0-2.9,0-2.9,2.9c0,1.5,0,3.1,0,4.6
		c0,1.2,0.5,1.7,1.7,1.7c1.9-0.1,3.8,0,5.7,0c1.2,0,1.7,0.4,1.7,1.6c-0.1,3.3-0.1,6.5,0,9.8c0,1.1-0.4,1.6-1.6,1.6
		c-1.7-0.1-3.4,0-5.2,0c-2.2,0-2.4,0.2-2.4,2.3c0,1.6,0.1,3.2,0,4.8c-0.1,1.7,0.6,2.3,2.3,2.3c9.4-0.1,18.8,0,28.1,0
		C194.7,217.9,196.6,217.9,198.5,217.9z"/>
</g>
</svg>
