<?xml version="1.0" encoding="utf-8"?>
<!-- Generator: Adobe Illustrator 26.0.1, SVG Export Plug-In . SVG Version: 6.00 Build 0)  -->
<svg version="1.1" id="Layer_1" xmlns="http://www.w3.org/2000/svg" xmlns:xlink="http://www.w3.org/1999/xlink" x="0px" y="0px"
	 viewBox="0 0 250 250" style="enable-background:new 0 0 250 250;" xml:space="preserve">
<style type="text/css">
	.st0{fill:#009E4E;}
</style>
<g>
	<path class="st0" d="M95,124.3c8.9-0.4,17,2.2,24.9,6.3c11.2,5.9,22.9,10.5,35.3,13.1c3.6,0.7,7.2,1.2,10.6,2.5
		c2.2,0.8,4.2,2,5.8,3.8c2.8,3.1,2.4,7.6-1.1,10c-2.6,1.7-5.5,2.4-8.6,2.6c-6.1,0.4-11.9-0.8-17.8-2c-4.8-1-9.6-2.3-14.5-3
		c-6.1-0.9-12.2-0.9-18.2,0.6c-0.8,0.2-1.6,0.6-2.3,1.2c-1.5,1.4-1,3.5,0.9,4.1c1.3,0.4,2.7,0.4,4-0.1c3.8-1.6,7.8-1.6,11.8-1.1
		c7.7,1,15.3,2.6,23,3.8c5.1,0.8,10.3,1.5,15.4,1.7c9.2,0.5,17.3-2.6,24.5-8.1c7.5-5.7,14.4-12.2,22-17.9c2.9-2.2,5.4-5,9.1-6.3
		c6.2-2.2,13.3,2.6,13.8,9.1c0.3,4.5-2.3,7.3-4.9,10.2c-8.8,9.8-19.3,17.7-29.8,25.4c-12.8,9.4-27.5,13.7-43.1,15.5
		c-8.8,1-17.6,0.6-26.4-0.5c-9.1-1.1-18-3-27-4.4c-6.6-1.1-13.3-2.1-19.9-3.1c-4.2-0.6-8.2,0.6-12.2,1.7c-5.7,1.7-11,4.4-16.3,7.1
		c-3.8,2-7.7,3.9-11.7,5.5c-5.5,2.2-10.6,0.8-14.5-3.6c-5.9-6.6-8.8-14.6-10.8-23.1c-0.9-3.8-1.4-7.6,0-11.3c1.1-3.2,3-5.9,5.8-7.7
		c12.5-8.1,25-16.2,37.6-24c7.9-4.9,16.8-6.9,26.1-7.7C89.3,124.4,92.1,124.1,95,124.3z"/>
	<path class="st0" d="M166.8,105.4c3.5,0,6.9-0.1,10.4,0c10.5,0.3,20.6,8.9,22.3,19.2c1.1,6.3,0.3,12.7,0.5,19.1
		c0,0.8-0.4,1.4-1,1.9c-4.4,3.6-8.5,7.5-13.1,10.8c-2.3,1.7-4.8,3.1-7.4,4.3c-0.6,0.2-1.2,0.6-1.8,0.1c-0.7-0.6,0-1.1,0.2-1.6
		c2.6-5.6,0.4-11.9-5.3-15.2c-4.5-2.6-9.5-3.6-14.6-4.5c-7.8-1.4-15.1-4.1-22.4-7.1c-1.1-0.4-1.4-1.2-1.4-2.3
		c-0.2-14.6,12-24.7,23.1-24.8C159.7,105.3,163.2,105.4,166.8,105.4L166.8,105.4z"/>
	<path class="st0" d="M226.9,116c0,4.8,0,8.7,0,12.6c0,2.1-0.3,2.4-2.4,2.1c-4.6-0.5-8.5,1.1-12,3.9c-1.5,1.2-3,2.4-4.5,3.6
		c-0.5,0.4-1,1.1-1.8,0.8c-0.9-0.3-0.8-1.2-0.9-1.9c-0.1-4.1,0-8.3-0.7-12.4c-1.8-10.8-7.9-18.3-17.9-22.6c-1-0.4-2.1-0.8-3.1-1.1
		c-1.7-0.6-1.8-0.9-0.4-2.2c2.6-2.4,4.8-5,6.3-8.2c0.6-1.4,1.3-2.8,1.7-4.3c0.4-1.2,1-1.7,2.3-1.7c4.8,0,9.5-0.1,14.3,0.1
		c8.3,0.3,16.9,8.2,18.5,16.3C227.4,106.3,226.7,111.6,226.9,116z"/>
	<path class="st0" d="M166.6,99.5c-10.3,0.6-20.6-8.6-20.4-20.5c0.2-10.8,8.9-20,20.4-20c11,0,20.2,9.2,20.3,20.1
		C187.1,90.3,177.3,100.1,166.6,99.5z"/>
	<path class="st0" d="M104.5,110.8c0.1-4.4-0.3-8.7,1.5-13c3.3-7.7,11-13.1,19.4-13.2c4.6,0,9.3,0,13.9,0c1.5,0,2.2,0.4,2.6,1.9
		c1.4,4.8,4,8.8,7.8,12.1c1.4,1.3,1.3,1.8-0.6,2.4c-9.7,3.2-16.5,9.5-19.8,19.3c-0.8,2.2-1.2,4.5-1.4,6.9c-0.2,1.9-0.6,2.1-2.3,1.3
		c-4.1-1.8-7.8-4.3-12.1-5.7c-2.4-0.8-4.8-1.7-7.3-1.9c-1.3-0.1-1.7-1-1.7-2.2C104.5,116.1,104.5,113.4,104.5,110.8z"/>
	<path class="st0" d="M133.8,46.8c6.5,0,13.1,4.8,15.1,11c0.5,1.4,0.3,2.7-0.7,3.8c-3.8,4-6.1,8.7-6.8,14.1
		c-0.3,2.2-2.2,2.5-3.9,2.9c-10.2,2.2-19.4-4.8-19.8-15.1C117.3,54.4,124.2,47.2,133.8,46.8z"/>
	<path class="st0" d="M213.6,62.7c0,10.6-9.7,18.3-19.7,15.9c-1.2-0.3-1.7-1-1.9-2.2c-0.6-4.1-1.9-8-4.3-11.5
		c-1.1-1.6-2.5-3.1-4-4.4c-1.4-1.2-1.5-2.4-0.8-3.9c2.4-5.7,8.9-9.9,15.2-9.7c6.5,0.2,12.7,4.9,14.6,11
		C213.3,59.5,213.8,61.2,213.6,62.7z"/>
</g>
</svg>
