<?xml version="1.0" encoding="utf-8"?>
<!-- Generator: Adobe Illustrator 26.0.1, SVG Export Plug-In . SVG Version: 6.00 Build 0)  -->
<svg version="1.1" id="Layer_1" xmlns="http://www.w3.org/2000/svg" xmlns:xlink="http://www.w3.org/1999/xlink" x="0px" y="0px"
	 viewBox="0 0 250 250" style="enable-background:new 0 0 250 250;" xml:space="preserve">
<style type="text/css">
	.st0{fill:#009E4F;}
</style>
<g>
	<path class="st0" d="M83,179.4c0-3.1-0.2-6.3,0-9.4c0.9-17.3,6.8-33.9,17-47.8c5.1-6.7,11.4-12.4,18.4-17
		c6.6-4.3,12.9-9.1,19.3-13.7c1-0.7,2.1-1.1,3.3-1.2c5.4,0,10.8,0,16.2,0c1.3,0.1,2.5,0.6,3.5,1.3c5.4,3.8,10.4,8.1,16,11.4
		c21.4,12.9,33,32.1,37.3,56.2c1.2,6.6,1.4,13.3,2.2,20.2H83z"/>
	<path class="st0" d="M72.6,87.9c1.6-0.2,3.3-0.2,4.9,0c1.6,0.3,3.1,1,4.3,2.1c2,2.2,1.5,9.7-0.4,12c-0.2,0.3-0.4,0.5-0.7,0.7
		c-4.9,3.4-5.9,8.2-5.7,13.8c0.4,8.9,0,17.9,0,26.9v3.1h6.3l-4.6,33.1h-1.8c-4,0.1-7.2,3.4-7.3,7.3c0,2.5,0,5.1,0,7.6
		c-6.3,1.8-7.6,3.8-7.6,10c0,5,0,10,0,14.9c0,0.2-0.1,0.5-0.2,0.7H29.3v-2.5c0-14.3,0-28.5,0-42.8c0.2-1.8-0.6-3.6-2.2-4.6
		c-2.8-1.9-5.3-4.2-8-6.3c-1.7-1.2-2.7-3.2-2.6-5.3c0-2.2,0-4.3,0-6.5c-0.3-2.8,1.7-5.3,4.5-5.6c0.4,0,0.7,0,1.1,0c4,0,7.9,0,12.1,0
		c0-1.1,0-2,0-2.9c0-10.9,0-22,0-32.8c0.2-1.6-0.5-3.1-1.7-4.1c-0.7-0.6-1.2-1.4-1.9-1.9c-4.5-3.1-4.4-7.7-4-12.3
		c0.2-2.4,2.2-4.3,4.6-4.4c1.7,0,3.5,0,5.6,0c0-1.9,0-3.5,0-5.2c-0.2-3.7,0-7.4,0.4-11.1c1.4-7.5,7.4-13.3,15-14.3c0-1.7,0-3.3,0-5
		c0.7-3.2-0.5-6.5-3.1-8.5c-3.7-3.3-4-9-0.7-12.8c0.1-0.1,0.1-0.1,0.2-0.2c1.1-1.3,2.5-1.8,3.9-0.7c1.4,1.1,1.1,2.4,0.2,3.8
		c-1.8,1.8-1.8,4.7,0,6.5c1.7,1.7,3.9,1.7,6.5,0c1-1,2.6-0.9,3.5,0c0.1,0.1,0.2,0.2,0.2,0.3c0.8,1.1,0.6,2.6-0.4,3.4
		c-0.1,0.1-0.1,0.1-0.2,0.1c-0.8,0.7-1.7,1.3-2.7,1.7c-1.9,0.5-2.4,1.5-2.3,3.4c0,2.5,0,5.1,0,7.2c3,1.3,5.9,2.8,8.6,4.6
		c4.2,3.1,6.6,7.9,6.6,13.1C72.7,78.7,72.6,83.1,72.6,87.9z M62.4,146.3c0-2.9,0.2-5.7,0-8.3c-0.5-4.2-4.3-7.2-8.5-6.7
		c-3.4,0.4-6.1,3-6.6,6.3c-0.2,2.9-0.2,5.8,0,8.6h4.9v-6.6c0-1.7,0.5-3.1,2.5-3.1s2.6,1.4,2.6,3.1v6.7L62.4,146.3z"/>
	<path class="st0" d="M137.8,220.3H65v-4.1c0-4.2,0-8.5,0-12.6c0-2.8,0.7-3.5,3.5-3.5h4c0-3.9,0-7.6,0-11.3c0-3.7,0.7-4.1,4.1-4.1
		h145.1c3.5,0,4,0.6,4,4.1V200h4.8c1.7,0,2.8,0.9,2.9,2.5c0,5.8,0,11.7,0,17.7h-75.3c0-2.5,0-5.1,0-7.6c-0.1-4.9-3.6-9.1-8.5-10
		c-4.7-0.8-9.3,1.7-11.1,6.1c-0.5,1.4-0.8,2.9-0.8,4.4C137.6,215.4,137.8,217.7,137.8,220.3z"/>
	<path class="st0" d="M158.8,85h-19.3c1-2.8,1.9-5.4,3.1-8c2.5-5.3,2.9-11.3,1.1-16.9c-1.1-2.9-1.1-6,0-8.9
		c1.6-4.6,3.1-9.3,4.9-13.9h1c1.8,5.9,3.9,11.7,5.3,17.6c0.3,2.6-0.1,5.1-1,7.5c-1,3.4-0.9,7.1,0.4,10.5
		C156,76.9,157.4,80.9,158.8,85z"/>
	<path class="st0" d="M142.9,220.3c0-2.7,0-5.2,0-7.7c0-2.7,2.2-4.9,4.9-5c2.7-0.1,5,1.9,5.1,4.6c0,0,0,0,0,0c0.2,2.6,0,5.2,0,8
		L142.9,220.3z"/>
</g>
</svg>
