<?xml version="1.0" encoding="utf-8"?>
<!-- Generator: Adobe Illustrator 26.0.1, SVG Export Plug-In . SVG Version: 6.00 Build 0)  -->
<svg version="1.1" id="Layer_1" xmlns="http://www.w3.org/2000/svg" xmlns:xlink="http://www.w3.org/1999/xlink" x="0px" y="0px"
	 viewBox="0 0 250 250" style="enable-background:new 0 0 250 250;" xml:space="preserve">
<style type="text/css">
	.st0{fill:#009E4E;}
</style>
<g>
	<path class="st0" d="M25.2,159c-5.2,0-10.4,0-15.5,0c-0.9,0-2.5,0.4-2.3-1.1c0.2-1.4-0.2-3.8,1.7-4.1c4.6-0.8,6.6-4.1,7.9-7.9
		c1.5-4.1,2.6-8.4,3.8-12.6c2.7-9.6,5.2-19.2,7.9-28.8c1.3-4.7,1-5.7-3.1-8.3c-1.2-0.8-0.9-1.6-0.6-2.6c0.3-1.1,0.4-2.4,2-2.4
		c3.9-0.1,7.9-0.4,11.8-0.2c6.2,0.4,12.3-0.3,18.5,0.1c1,0.1,2.5-0.7,2.7,0.8c0.2,1.4,0.1,3.4-1.3,3.9c-4.6,1.5-5.4,5.2-6.4,9.1
		c-1.2,4.6-2.5,9.1-3.8,13.6c-0.2,0.6-0.7,1.4,0,1.9c0.6,0.4,1.2-0.3,1.6-0.6c8.2-6.2,16.4-12.4,24.4-18.7c2.8-2.2,2.6-3.2-0.6-4.8
		c-1.7-0.8-1-2-0.9-3.1c0.1-1.4,0.8-2,2.3-2.1c6.6-0.5,13.3-0.2,19.9-0.2c4-0.1,8-0.1,12,0c0.9,0,2.4-0.4,2.5,1c0,1.4,0.1,3.6-1.7,4
		c-6.8,1.5-10.9,6.8-16,10.6c-6.1,4.4-11.8,9.4-17.8,14.1c-1.8,1.4-2.1,2.5-0.7,4.5c5.2,7.6,10,15.4,15.4,22.9
		c2,2.7,4.5,4.6,7.7,5.6c0.9,0.3,2.2,0.4,1.7,1.9c-0.5,1.4,0,3.7-2.3,3.7c-7.4-0.1-14.8,0.6-22.2-0.5c-5.4-0.8-9.6-3.6-13.1-7.6
		c-4.7-5.3-8.3-11.3-12.2-17.1c-0.8-1.2-1.4-3.4-2.6-3.2c-1.5,0.2-1.3,2.5-1.8,3.9c-1.2,4.2-2.4,8.5-3.5,12.7
		c-0.9,3.4-0.5,4.2,2.5,5.8c1.3,0.7,1.7,1.4,1.2,2.8c-0.5,1.4-0.3,3.3-2.8,3.3C36,159,30.6,159,25.2,159L25.2,159z"/>
	<path class="st0" d="M221.7,89.9c6.4-0.1,12.8,0.9,19,2.4c1.9,0.5,2.3,1.3,1.8,3.1c-1.3,4.3-2.4,8.6-3.7,12.9
		c-0.6,2-2.2,2.6-3.6,1.1c-5.1-5.3-11.4-6.3-18.3-5.9c-7.2,0.5-13.9,2.5-19.4,7.6c-8.2,7.3-8.1,21.5,0.1,28.6c7.2,6.3,15.6,7,24.6,6
		c3.5-0.4,7-1.3,10.4-2.4c1.5-0.5,2.1,0,1.7,1.5c-0.8,3.5-1.6,7.1-2.4,10.6c-0.3,1.1-0.8,2.1-2.2,2.4c-12.1,2.3-24.3,3.4-36.5,1
		c-6-1.2-11.7-3.5-16.5-7.4c-9.5-7.6-12.8-20.1-8.5-31.5c4.3-11.2,12.7-18.6,23.3-23.6C201,91.8,211.2,90.1,221.7,89.9z"/>
	<path class="st0" d="M117.1,159c-4.3,0-8.6,0-13,0c-2,0-2.6-0.6-2-2.6c3-10.8,6-21.6,8.9-32.3c1.9-7.1,3.9-14.1,5.8-21.2
		c0.9-3.2,0.1-5-2.9-6.3c-1-0.4-2-0.9-1.5-2.1c0.5-1.3,0.2-3.4,2.4-3.4c2.2,0,4.3,0.2,6.5,0.2c17.1,0,34.1,0,51.2,0
		c2.8,0,2.8,0,2.1,2.7c-1.2,4.6-2.3,9.3-3.5,13.9c-0.2,0.8-0.2,1.7-1.4,1.8c-1,0.1-1.7-0.2-2.2-1.2c-1.2-2.1-3.2-3.1-5.6-3.1
		c-6.2-0.1-12.5,0-18.8,0c-1.1,0-1.9,0.3-2.2,1.5c-0.8,3.1-1.6,6.1-2.4,9.2c-0.5,1.9,1,1.6,1.9,1.6c5.7,0.1,11.4,0,17.1,0
		c3.9,0,4.1,0,3.2,3.8c-0.9,3.9-2,7.8-3,11.6c-0.3,1.1-0.8,1.4-1.8,0.7c-2.8-2.1-6-2.6-9.4-2.5c-3.4,0.1-6.8,0.1-10.2,0
		c-1.6,0-2.6,0.6-3,2.3c-1.1,4.6-2.5,9.1-3.6,13.6c-0.8,3.1-0.2,4.3,2.5,5.9c1.1,0.6,1.8,1.2,1.2,2.5c-0.6,1.4-0.3,3.6-2.9,3.5
		C126.1,159,121.6,159,117.1,159C117.1,159,117.1,159,117.1,159z"/>
</g>
</svg>
