<?xml version="1.0" encoding="utf-8"?>
<!-- Generator: Adobe Illustrator 26.0.1, SVG Export Plug-In . SVG Version: 6.00 Build 0)  -->
<svg version="1.1" id="Layer_1" xmlns="http://www.w3.org/2000/svg" xmlns:xlink="http://www.w3.org/1999/xlink" x="0px" y="0px"
	 viewBox="0 0 250 250" style="enable-background:new 0 0 250 250;" xml:space="preserve">
<style type="text/css">
	.st0{fill:#009E4E;}
</style>
<g>
	<path class="st0" d="M145,14.5c1.1,1.2,1.5,2.6,1.5,4.2c-0.1,6.6-0.1,13.2,0,19.8c0,1.8-0.6,2.4-2.4,2.4c-12.9-0.1-25.8-0.1-38.7,0
		c-1.8,0-2.5-0.5-2.4-2.4c0.1-6.3,0.1-12.6,0-18.9c0-2.1,0.4-3.8,2-5.2C118.3,14.5,131.6,14.5,145,14.5z"/>
	<path class="st0" d="M99.2,138.3c-10.2,0.3-20.1-0.7-30-2.1c-1.8-0.3-2.3-1-2.3-2.7c0.2-8.6,0.4-17.2,0.6-25.8
		c0.1-3,0.3-3.1,3.3-2.6c9.6,1.9,19.4,2.6,29.2,2.6c16.6,0,33-1.8,48.8-7.3c10.4-3.6,19.9-8.7,28.1-16.3c0.6-0.6,1.3-0.9,2.1-1.1
		c1.4-0.3,2.4,0,2.4,1.6c0,0.4,0.1,0.7,0.1,1.1c0.2,7.5,0.4,15,0.6,22.4c0,1.3-0.4,2.4-1.2,3.5c-4.3,5.5-9.9,9.5-16,12.9
		c-10.5,5.9-21.9,8.9-33.6,11.1C120.7,137.5,109.9,138.6,99.2,138.3z"/>
	<path class="st0" d="M154.9,194.9c-22.9,0.2-43.3-2.5-63-9.4c-8.3-2.9-16.1-6.8-23-12.3c-2.3-1.9-3.5-3.8-3.3-6.9
		c0.4-6.9,0.4-13.9,0.6-20.9c0-0.4,0-0.8,0.1-1.1c0.1-0.7,0-1.6,0.8-1.9c0.8-0.4,1.4,0.4,1.9,0.9c6.6,5.7,14.1,9.9,22.1,13.1
		c11,4.5,22.4,7,34.1,8.6c8.3,1.1,16.7,1.6,25,1.6c10.6,0,21.3-0.6,31.8-2.7c1.8-0.4,2.5,0.2,2.6,1.9c0.2,8.4,0.4,16.7,0.6,25.1
		c0,1.5-0.8,1.8-2.1,2C173.1,194.5,163,195,154.9,194.9z"/>
	<path class="st0" d="M125.1,47.3c15.6,0,31.3,0,46.9,0c5,0,7.5,2.3,7.8,7.3c0.4,6.3,0.5,12.7,0.9,19.1c0.1,2-0.6,2.7-2.5,3.1
		c-6.4,1.4-12.8,2.4-19.3,2.7c-17.4,0.8-34.6-0.2-51.5-5.2C96.8,71,86.7,66.8,78.1,59.4c-2.5-2.1-4.6-4.6-6.4-7.3
		c-0.8-1.2-0.6-2.1,0.5-3c1.6-1.3,3.3-1.8,5.3-1.8C93.4,47.3,109.2,47.3,125.1,47.3z"/>
	<path class="st0" d="M80.9,144c2.4-0.3,4.5,0.1,6.6,0.2c22,1.1,43.8-0.6,64.9-7.6c10.6-3.5,20.4-8.3,28.6-16.1
		c1.2-1.2,1.6-0.6,1.7,0.7c0.1,0.4,0.1,0.7,0.1,1.1c0.3,10.7,0.6,21.5,1,32.2c0.1,2-0.5,2.8-2.6,3.2c-14.7,2.7-29.6,3-44.5,2.1
		c-11.7-0.7-23.1-2.6-34.3-5.9c-6.8-2-13.3-4.6-19.4-8.1C82.3,145.4,81.4,145.1,80.9,144z"/>
	<path class="st0" d="M165.4,85.2c-1.9,2.1-3.9,2.9-5.7,3.9c-11.7,6.3-24.3,9.5-37.4,11.5c-9,1.3-18,1.5-27,1.3
		c-8.4-0.2-16.8-1.4-25.1-3c-1.5-0.3-1.9-1-1.9-2.4C68.7,85,69,73.6,69.3,62.2c0-0.7,0-1.5,0.5-1.9c0.6-0.4,0.9,0.2,1.2,0.6
		c8.3,8.7,18.7,13.9,29.9,17.7c10.6,3.6,21.4,5.6,32.5,6.6c9.3,0.8,18.6,0.8,27.9,0C162.6,85.1,163.8,85.2,165.4,85.2z"/>
	<path class="st0" d="M171.7,200.7c-4.7,3-9.3,4.7-13.9,6.5c-4.3,1.7-8.7,2.4-13.4,2.4c-24-0.1-48-0.1-72-0.1c-5.5,0-8-2.5-7.9-8
		c0.1-6.9,0.3-13.8,0.6-20.7c0-0.8-0.1-1.9,0.6-2.3c0.8-0.4,1.4,0.5,2.1,1c10.6,8,22.8,12.4,35.5,15.7c10.6,2.7,21.4,4.4,32.4,5.1
		c10.7,0.7,21.3,0.8,31.9,0C168.6,200.3,169.9,200.1,171.7,200.7z"/>
	<path class="st0" d="M124.9,215.9c6.3,0,12.6,0.1,18.9-0.1c2.2-0.1,2.8,0.7,2.7,2.8c-0.1,6.5,0,13-0.1,19.6c0,3.3-1,4.2-4.2,4.2
		c-11.6,0-23.1,0-34.7,0c-3.4,0-4.5-1.1-4.5-4.5c0-6.4,0.1-12.9-0.1-19.3c0-2.2,0.7-2.8,2.8-2.7C112.1,216,118.5,215.9,124.9,215.9z
		"/>
	<path class="st0" d="M169.5,209.5c0.2-1.1,0.9-1.1,1.4-1.4c4.5-2.3,8.7-4.9,12.6-8.1c0.5-0.4,1-1.2,1.6-0.9c0.8,0.4,0.4,1.3,0.4,2
		c0.4,3.6-0.8,6.4-4.2,7.9c-1.3,0.6-2.6,0.5-3.9,0.5C174.8,209.5,172.2,209.5,169.5,209.5z"/>
</g>
</svg>
